<svg xmlns="http://www.w3.org/2000/svg" width="1440" height="900" viewBox="0 0 1440 900" role="img" aria-labelledby="title desc">
  <title id="title">游乐场多媒体试玩原型</title>
  <desc id="desc">基于现有游乐场布局的文生图工作台原型：包含提示词、工具栏、模型选择与三张图片结果。</desc>
  <defs>
    <linearGradient id="page" x1="0" y1="0" x2="0" y2="1"><stop stop-color="#ffffff"/><stop offset="1" stop-color="#fafafa"/></linearGradient>
    <linearGradient id="art1" x1="0" y1="0" x2="1" y2="1"><stop stop-color="#c7d2fe"/><stop offset=".5" stop-color="#dbeafe"/><stop offset="1" stop-color="#fef3c7"/></linearGradient>
    <linearGradient id="art2" x1="0" y1="0" x2="1" y2="1"><stop stop-color="#bae6fd"/><stop offset=".55" stop-color="#ddd6fe"/><stop offset="1" stop-color="#fde68a"/></linearGradient>
    <linearGradient id="art3" x1="0" y1="0" x2="1" y2="1"><stop stop-color="#bbf7d0"/><stop offset=".5" stop-color="#bfdbfe"/><stop offset="1" stop-color="#fecdd3"/></linearGradient>
    <filter id="shadow" x="-10%" y="-20%" width="120%" height="150%"><feDropShadow dx="0" dy="16" stdDeviation="20" flood-color="#18181b" flood-opacity=".12"/></filter>
  </defs>
  <rect width="1440" height="900" fill="url(#page)"/>
  <rect x="0" y="0" width="1440" height="56" fill="#ffffff" stroke="#e4e4e7"/>
  <circle cx="34" cy="28" r="12" fill="#18181b"/><path d="M30 28h8M34 24v8" stroke="#fff" stroke-width="1.5" stroke-linecap="round"/>
  <text x="58" y="33" fill="#18181b" font-family="Inter, PingFang SC, Microsoft YaHei, sans-serif" font-size="15" font-weight="700">New API</text>
  <text x="168" y="33" fill="#71717a" font-family="Inter, PingFang SC, Microsoft YaHei, sans-serif" font-size="14">/ 游乐场</text>
  <rect x="1174" y="15" width="112" height="26" rx="6" fill="#f4f4f5"/><text x="1194" y="33" fill="#52525b" font-family="Inter, PingFang SC, Microsoft YaHei, sans-serif" font-size="12">可用额度 ¥86.20</text>
  <circle cx="1332" cy="28" r="14" fill="#e4e4e7"/><text x="1327" y="33" fill="#52525b" font-family="Inter, PingFang SC, Microsoft YaHei, sans-serif" font-size="12" font-weight="700">U</text>
  <text x="272" y="91" fill="#71717a" font-family="Inter, PingFang SC, Microsoft YaHei, sans-serif" font-size="12">游乐场试玩将按正式 API 相同的权限、额度与计费规则处理。</text>
  <text x="272" y="138" fill="#18181b" font-family="Inter, PingFang SC, Microsoft YaHei, sans-serif" font-size="24" font-weight="700">文生图工作台</text>
  <text x="272" y="166" fill="#71717a" font-family="Inter, PingFang SC, Microsoft YaHei, sans-serif" font-size="14">使用已开通的图片模型生成结果，调用与正式 API 计费一致。</text>
  <rect x="272" y="202" width="896" height="368" rx="12" fill="#ffffff" stroke="#e4e4e7"/>
  <rect x="292" y="222" width="272" height="292" rx="9" fill="url(#art1)"/>
  <circle cx="437" cy="333" r="65" fill="#ffffff" fill-opacity=".22"/><circle cx="387" cy="410" r="45" fill="#ffffff" fill-opacity=".19"/>
  <path d="M338 436c35-60 69-88 108-82 25 4 47 25 69 62" fill="none" stroke="#ffffff" stroke-opacity=".7" stroke-width="5" stroke-linecap="round"/>
  <rect x="292" y="524" width="272" height="26" rx="4" fill="#fafafa"/><text x="304" y="542" fill="#52525b" font-family="Inter, PingFang SC, Microsoft YaHei, sans-serif" font-size="12">赛博城市的黄昏景观</text>
  <rect x="584" y="222" width="272" height="292" rx="9" fill="url(#art2)"/>
  <path d="M619 427c48-88 93-112 130-108 37 4 61 35 82 92" fill="none" stroke="#ffffff" stroke-opacity=".68" stroke-width="6" stroke-linecap="round"/>
  <circle cx="748" cy="299" r="37" fill="#ffffff" fill-opacity=".35"/><rect x="584" y="524" width="272" height="26" rx="4" fill="#fafafa"/><text x="596" y="542" fill="#52525b" font-family="Inter, PingFang SC, Microsoft YaHei, sans-serif" font-size="12">柔和光影与未来建筑</text>
  <rect x="876" y="222" width="272" height="292" rx="9" fill="url(#art3)"/>
  <path d="M903 436c36-36 74-86 112-88 42-2 74 34 102 86" fill="none" stroke="#ffffff" stroke-opacity=".72" stroke-width="6" stroke-linecap="round"/>
  <circle cx="1072" cy="288" r="47" fill="#ffffff" fill-opacity=".27"/><rect x="876" y="524" width="272" height="26" rx="4" fill="#fafafa"/><text x="888" y="542" fill="#52525b" font-family="Inter, PingFang SC, Microsoft YaHei, sans-serif" font-size="12">产品宣传视觉概念</text>
  <rect x="272" y="640" width="896" height="190" rx="12" fill="#ffffff" stroke="#d4d4d8" filter="url(#shadow)"/>
  <text x="294" y="675" fill="#18181b" font-family="Inter, PingFang SC, Microsoft YaHei, sans-serif" font-size="15">一座黄昏时分的未来城市，温暖的橙色光线，电影感构图</text>
  <line x1="272" y1="741" x2="1168" y2="741" stroke="#e4e4e7"/>
  <rect x="292" y="760" width="34" height="34" rx="7" fill="#ffffff" stroke="#e4e4e7"/><text x="302" y="782" fill="#71717a" font-family="Inter, PingFang SC, Microsoft YaHei, sans-serif" font-size="17">⌘</text>
  <rect x="334" y="760" width="34" height="34" rx="7" fill="#ffffff" stroke="#e4e4e7"/><text x="345" y="782" fill="#71717a" font-family="Inter, PingFang SC, Microsoft YaHei, sans-serif" font-size="17">☷</text>
  <rect x="870" y="760" width="196" height="34" rx="7" fill="#ffffff" stroke="#e4e4e7"/><text x="888" y="781" fill="#18181b" font-family="Inter, PingFang SC, Microsoft YaHei, sans-serif" font-size="13" font-weight="600">◉ dall-e-3 · default</text>
  <rect x="1075" y="760" width="72" height="34" rx="7" fill="#18181b"/><text x="1092" y="781" fill="#fafafa" font-family="Inter, PingFang SC, Microsoft YaHei, sans-serif" font-size="13" font-weight="600">生成</text>
</svg>
